<svg xmlns="http://www.w3.org/2000/svg" xmlns:xlink="http://www.w3.org/1999/xlink" version="1.1" id="Layer_1" x="0px" y="0px" viewBox="0 0 512 512" style="enable-background:new 0 0 512 512;" xml:space="preserve">
<style type="text/css">
	.st0{fill:#D00202;}
</style>
<g id="XMLID_1_">
	<path id="XMLID_8_" class="st0" d="M296.84,62.54c40.82-2.67,82.76,1.96,120.78,17.39c16.97,7.01,33.11,16.41,47.13,28.2   c23.57,18.94,40.12,46.57,45.17,76.45c5.47,30.72-0.42,62.56-13.19,90.62c-12.63,28.2-31.84,53.31-53.87,74.77   c-23.85,23.15-51.34,42.36-80.8,57.65c-30.72,15.85-63.41,27.78-97.21,34.93c-41.8,8.84-85.43,10.66-127.51,2.38   c-32.4-6.45-64.25-19.22-89.78-40.54c-21.04-17.68-37.17-41.66-43.77-68.46c-6.73-26.93-4.21-55.69,4.63-81.78   c10.1-29.88,27.64-56.81,48.96-79.82c40.12-43.49,92.44-74.63,148.28-93.29C235.11,70.95,265.83,64.5,296.84,62.54z M361.5,105.04   c-2.24,0.28-5.05,0.56-6.17,2.95c-1.12,2.81-1.26,5.75-1.96,8.7c-13.19,71.68-26.37,143.37-39.7,215.05   c-0.28,1.68-0.7,3.37-0.28,5.05c0.84,1.12,2.53,0.42,3.65,0.42c9.26-1.4,18.66-2.95,27.92-4.49c2.1-0.14,2.38-2.53,2.67-4.21   c4.07-21.6,8.42-43.07,12.34-64.67c6.73,19.36,13.75,38.72,20.62,58.22c0.56,1.4,0.84,2.95,1.96,4.07c2.95,0.7,6.03-0.56,9.12-0.84   c7.43-1.4,15.15-1.96,22.44-4.07c0-2.81-1.26-5.47-2.1-8c-6.59-18.8-13.05-37.74-19.64-56.53c13.05-21.46,26.09-42.79,39.28-64.11   c0.7-1.26,1.96-3.09,0-3.93c-9.26,0.56-18.52,1.82-27.78,2.67c-2.24,0-4.49,1.12-5.47,3.23c-12.34,20.62-24.41,41.38-36.75,62   c9.12-49.1,18.38-98.34,27.49-147.43c0.14-1.4,0.42-2.95,0.14-4.35c-0.42-1.96-2.81-1.82-4.21-1.82   C377.22,103.22,369.36,104.2,361.5,105.04z M187.84,133.66c-38.44,79.26-76.73,158.66-115.17,237.91   c-0.42,1.26-1.26,2.67-0.56,4.07c1.68,0.84,3.51,0.28,5.19,0.14c10.66-1.68,21.18-3.37,31.84-5.05c1.54-0.28,3.51-0.56,3.93-2.38   c5.75-13.61,11.64-27.07,17.25-40.82c15.57-2.52,31.28-4.91,46.99-7.43c0.14,12.2,0.28,24.27,0.56,36.47   c-0.28,2.1,1.82,2.81,3.51,2.38c8-1.12,15.99-2.53,23.99-3.79c2.1-0.42,4.49-0.42,6.31-1.96c0.84-1.4,0.7-2.95,0.56-4.49   c-5.33-71.4-10.66-142.94-16.13-214.35c-0.14-2.1-0.84-5.33-3.51-5.19C190.22,129.73,188.82,131.69,187.84,133.66z M275.79,202.96   c-10.1,1.82-20.06,6.31-26.93,14.03c-9.26,10.24-12.06,25.25-9.4,38.58c2.1,9.26,8.28,16.97,15.01,23.43   c6.45,5.75,12.77,12.2,15.85,20.34c1.82,4.91,2.24,10.8-0.84,15.29c-3.79,5.33-10.52,7.72-16.83,7.58   c-8.28-0.14-16.97-3.79-21.32-11.08c-2.1,7.86-4.35,15.71-6.73,23.43c-0.56,2.24-1.4,4.63-0.7,6.87c1.4,2.53,4.49,3.23,7.01,4.21   c12.91,4.21,26.79,3.09,39.84,0.28c19.08-5.33,34.51-22.87,36.05-42.79c1.12-11.36-2.53-23.15-10.1-31.84   c-7.29-8.14-16.55-14.45-23.01-23.29c-6.03-8.14,0-21.74,10.1-22.3c7.29-0.84,13.19,4.21,18.94,7.86   c2.53-7.43,5.33-14.87,7.72-22.44c0.84-1.96,0.14-4.49-1.96-5.19C298.1,201.97,286.6,200.85,275.79,202.96z M174.51,221.47   c-10.52,24.83-21.04,49.66-31.56,74.49c11.5-1.68,22.87-3.65,34.37-5.33c0-25.11-0.28-50.36-0.28-75.47   C176.34,217.41,175.49,219.37,174.51,221.47z"/>
</g>
</svg>